<?xml version="1.0" encoding="iso-8859-1"?>
<!-- Generator: Adobe Illustrator 20.1.0, SVG Export Plug-In . SVG Version: 6.00 Build 0)  -->
<svg xmlns="http://www.w3.org/2000/svg" xmlns:xlink="http://www.w3.org/1999/xlink" version="1.1" id="&#1057;&#1083;&#1086;&#1081;_1" x="0px" y="0px" viewBox="0 0 64 64" style="enable-background:new 0 0 64 64;" xml:space="preserve">
<linearGradient id="SVGID_1__43661" gradientUnits="userSpaceOnUse" x1="32" y1="-13.7708" x2="32" y2="71.2713" spreadMethod="reflect">
	<stop offset="0" style="stop-color:#1A6DFF"/>
	<stop offset="1" style="stop-color:#C822FF"/>
</linearGradient>
<path style="fill:url(#SVGID_1__43661);" d="M47,6H31c-3.859,0-7,3.141-7,7v1h-9c-2.757,0-5,2.243-5,5v34c0,2.757,2.243,5,5,5h22  c2.757,0,5-2.243,5-5V34h-2v19c0,1.654-1.346,3-3,3H15c-1.654,0-3-1.346-3-3V19c0-1.654,1.346-3,3-3h9v2h-7c-1.654,0-3,1.346-3,3v26  c0,1.654,1.346,3,3,3h18c1.654,0,3-1.346,3-3V36h-2v11c0,0.552-0.448,1-1,1H17c-0.552,0-1-0.448-1-1V21c0-0.552,0.448-1,1-1h7v1  c0,3.859,3.141,7,7,7h1.83c1.141,0,2.112,0.849,2.167,1.891c0.029,0.557-0.165,1.084-0.547,1.486C34.068,31.778,33.554,32,33,32v2h2  c3.193,0,5.981-2.157,6.777-5.245C41.893,28.311,42.288,28,42.739,28H47c3.859,0,7-3.141,7-7v-8C54,9.141,50.859,6,47,6z M52,21  c0,2.757-2.243,5-5,5h-4.261c-1.363,0-2.555,0.927-2.898,2.255c-0.43,1.665-1.67,2.951-3.234,3.481  c0.289-0.598,0.424-1.263,0.389-1.95C36.884,27.663,35.054,26,32.83,26H31c-2.757,0-5-2.243-5-5v-1v-2v-2v-2v-1c0-2.757,2.243-5,5-5  h16c2.757,0,5,2.243,5,5V21z"/>
<linearGradient id="SVGID_2__43661" gradientUnits="userSpaceOnUse" x1="26" y1="5.8333" x2="26" y2="58.1669" spreadMethod="reflect">
	<stop offset="0" style="stop-color:#1A6DFF"/>
	<stop offset="1" style="stop-color:#C822FF"/>
</linearGradient>
<rect x="23" y="52" style="fill:url(#SVGID_2__43661);" width="6" height="2"/>
<linearGradient id="SVGID_3__43661" gradientUnits="userSpaceOnUse" x1="24" y1="5.8333" x2="24" y2="58.1669" spreadMethod="reflect">
	<stop offset="0" style="stop-color:#1A6DFF"/>
	<stop offset="1" style="stop-color:#C822FF"/>
</linearGradient>
<rect x="20" y="30" style="fill:url(#SVGID_3__43661);" width="8" height="2"/>
<linearGradient id="SVGID_4__43661" gradientUnits="userSpaceOnUse" x1="26" y1="5.8333" x2="26" y2="58.1669" spreadMethod="reflect">
	<stop offset="0" style="stop-color:#1A6DFF"/>
	<stop offset="1" style="stop-color:#C822FF"/>
</linearGradient>
<rect x="20" y="34" style="fill:url(#SVGID_4__43661);" width="12" height="2"/>
<linearGradient id="SVGID_5__43661" gradientUnits="userSpaceOnUse" x1="26" y1="5.8333" x2="26" y2="58.1669" spreadMethod="reflect">
	<stop offset="0" style="stop-color:#1A6DFF"/>
	<stop offset="1" style="stop-color:#C822FF"/>
</linearGradient>
<rect x="20" y="38" style="fill:url(#SVGID_5__43661);" width="12" height="2"/>
<linearGradient id="SVGID_6__43661" gradientUnits="userSpaceOnUse" x1="44" y1="13.8125" x2="44" y2="20.1903" spreadMethod="reflect">
	<stop offset="0" style="stop-color:#6DC7FF"/>
	<stop offset="1" style="stop-color:#E6ABFF"/>
</linearGradient>
<circle style="fill:url(#SVGID_6__43661);" cx="44" cy="17" r="3"/>
<linearGradient id="SVGID_7__43661" gradientUnits="userSpaceOnUse" x1="34" y1="13.8125" x2="34" y2="20.1903" spreadMethod="reflect">
	<stop offset="0" style="stop-color:#6DC7FF"/>
	<stop offset="1" style="stop-color:#E6ABFF"/>
</linearGradient>
<circle style="fill:url(#SVGID_7__43661);" cx="34" cy="17" r="3"/>
</svg>
